<?xml version="1.0" encoding="UTF-8"?>
<svg xmlns="http://www.w3.org/2000/svg" xmlns:xlink="http://www.w3.org/1999/xlink" width="162.049pt" height="150.708pt" viewBox="0 0 162.049 150.708">
<path fill="none" stroke-width="0.3985" stroke-linecap="butt" stroke-linejoin="miter" stroke="rgb(100%, 100%, 100%)" stroke-opacity="1" stroke-dasharray="2.98883 2.98883" stroke-miterlimit="10" d="M -0.00184375 8.505937 L 2.892687 8.459062 L 5.783312 8.32625 L 8.677844 8.1075 L 11.568469 7.802812 L 14.463 7.42 L 17.353625 6.959062 L 20.248156 6.423906 L 23.138781 5.822344 L 26.033313 5.162187 L 28.923938 4.447344 L 31.814563 3.685625 L 34.709094 2.884844 L 37.599719 2.056719 L 40.49425 1.205156 L 43.384875 0.341875 L 46.279406 -0.525313 L 49.170031 -1.384688 L 52.064563 -2.232344 L 54.955188 -3.056563 L 57.845813 -3.849531 L 60.740344 -4.603438 L 63.630969 -5.306563 L 66.5255 -5.955 L 69.416125 -6.544844 L 72.310656 -7.064375 L 75.201281 -7.509688 L 78.095812 -7.876875 L 80.986437 -8.162031 L 83.880969 -8.36125 L 86.771594 -8.474531 L 89.662219 -8.501875 L 92.55675 -8.439375 L 95.447375 -8.287031 L 98.341906 -8.052656 L 101.232531 -7.728438 L 104.127062 -7.33 L 107.017687 -6.853438 L 109.912219 -6.302656 L 112.802844 -5.689375 L 115.693469 -5.0175 L 118.588 -4.290938 L 121.478625 -3.521406 L 124.373156 -2.712813 L 127.263781 -1.880781 L 130.158312 -1.025313 L 133.048937 -0.158125 L 135.943469 0.709062 L 138.834094 1.568437 L 141.728625 2.408281 " transform="matrix(1, 0, 0, -1, 10.162, 132.045)"/>
<path fill="none" stroke-width="0.3985" stroke-linecap="butt" stroke-linejoin="miter" stroke="rgb(100%, 100%, 100%)" stroke-opacity="1" stroke-dasharray="2.98883 2.98883" stroke-miterlimit="10" d="M -0.00184375 32.939531 L 2.892687 32.189531 L 5.783312 31.396562 L 8.677844 30.572344 L 11.568469 29.724687 L 14.463 28.861406 L 17.353625 27.994219 L 20.248156 27.130937 L 23.138781 26.279375 L 26.033313 25.45125 L 28.923938 24.650469 L 31.814563 23.892656 L 34.709094 23.177812 L 37.599719 22.51375 L 40.49425 21.916094 L 43.384875 21.380937 L 46.279406 20.92 L 49.170031 20.537187 L 52.064563 20.236406 L 54.955188 20.017656 L 57.845813 19.884844 L 60.740344 19.841875 L 63.630969 19.88875 L 66.5255 20.021562 L 69.416125 20.240312 L 72.310656 20.545 L 75.201281 20.931719 L 78.095812 21.392656 L 80.986437 21.927812 L 83.880969 22.529375 L 86.771594 23.193437 L 89.662219 23.908281 L 92.55675 24.67 L 95.447375 25.470781 L 98.341906 26.298906 L 101.232531 27.150469 L 104.127062 28.01375 L 107.017687 28.880937 L 109.912219 29.744219 L 112.802844 30.591875 L 115.693469 31.412187 L 118.588 32.205156 L 121.478625 32.959062 L 124.373156 33.662187 L 127.263781 34.310625 L 130.158312 34.896562 L 133.048937 35.416094 L 135.943469 35.861406 L 138.834094 36.224687 L 141.728625 36.509844 " transform="matrix(1, 0, 0, -1, 10.162, 132.045)"/>
<path fill="none" stroke-width="0.3985" stroke-linecap="butt" stroke-linejoin="miter" stroke="rgb(100%, 100%, 100%)" stroke-opacity="1" stroke-dasharray="2.98883 2.98883" stroke-miterlimit="10" d="M -0.00184375 53.154375 L 2.892687 52.384844 L 5.783312 51.662187 L 8.677844 50.990312 L 11.568469 50.377031 L 14.463 49.830156 L 17.353625 49.353594 L 20.248156 48.955156 L 23.138781 48.634844 L 26.033313 48.400469 L 28.923938 48.252031 L 31.814563 48.193437 L 34.709094 48.220781 L 37.599719 48.334062 L 40.49425 48.537187 L 43.384875 48.82625 L 46.279406 49.193437 L 49.170031 49.642656 L 52.064563 50.162187 L 54.955188 50.752031 L 57.845813 51.400469 L 60.740344 52.1075 L 63.630969 52.861406 L 66.5255 53.654375 L 69.416125 54.478594 L 72.310656 55.32625 L 75.201281 56.189531 L 78.095812 57.056719 L 80.986437 57.92 L 83.880969 58.767656 L 86.771594 59.599687 L 89.662219 60.396562 L 92.55675 61.158281 L 95.447375 61.873125 L 98.341906 62.533281 L 101.232531 63.130937 L 104.127062 63.662187 L 107.017687 64.123125 L 109.912219 64.505937 L 112.802844 64.806719 L 115.693469 65.025469 L 118.588 65.154375 L 121.478625 65.197344 L 124.373156 65.150469 L 127.263781 65.017656 L 130.158312 64.795 L 133.048937 64.490312 L 135.943469 64.103594 L 138.834094 63.642656 L 141.728625 63.1075 " transform="matrix(1, 0, 0, -1, 10.162, 132.045)"/>
<path fill="none" stroke-width="0.3985" stroke-linecap="butt" stroke-linejoin="miter" stroke="rgb(100%, 100%, 100%)" stroke-opacity="1" stroke-dasharray="2.98883 2.98883" stroke-miterlimit="10" d="M -0.00184375 76.623125 L 2.892687 76.545 L 5.783312 76.552812 L 8.677844 76.650469 L 11.568469 76.837969 L 14.463 77.1075 L 17.353625 77.462969 L 20.248156 77.892656 L 23.138781 78.400469 L 26.033313 78.974687 L 28.923938 79.615312 L 31.814563 80.310625 L 34.709094 81.052812 L 37.599719 81.837969 L 40.49425 82.658281 L 43.384875 83.502031 L 46.279406 84.361406 L 49.170031 85.228594 L 52.064563 86.095781 L 54.955188 86.947344 L 57.845813 87.783281 L 60.740344 88.587969 L 63.630969 89.3575 L 66.5255 90.080156 L 69.416125 90.752031 L 72.310656 91.365312 L 75.201281 91.912187 L 78.095812 92.384844 L 80.986437 92.783281 L 83.880969 93.099687 L 86.771594 93.334062 L 89.662219 93.4825 L 92.55675 93.541094 L 95.447375 93.51375 L 98.341906 93.396562 L 101.232531 93.193437 L 104.127062 92.904375 L 107.017687 92.533281 L 109.912219 92.087969 L 112.802844 91.564531 L 115.693469 90.974687 L 118.588 90.32625 L 121.478625 89.619219 L 124.373156 88.865312 L 127.263781 88.072344 L 130.158312 87.244219 L 133.048937 86.396562 L 135.943469 85.537187 L 138.834094 84.67 L 141.728625 83.806719 " transform="matrix(1, 0, 0, -1, 10.162, 132.045)"/>
<path fill="none" stroke-width="0.3985" stroke-linecap="butt" stroke-linejoin="miter" stroke="rgb(100%, 100%, 100%)" stroke-opacity="1" stroke-dasharray="2.98883 2.98883" stroke-miterlimit="10" d="M -0.00184375 107.830156 L 2.892687 108.51375 L 5.783312 109.248125 L 8.677844 110.025469 L 11.568469 110.841875 L 14.463 111.677812 L 17.353625 112.537187 L 20.248156 113.404375 L 23.138781 114.267656 L 26.033313 115.127031 L 28.923938 115.962969 L 31.814563 116.775469 L 34.709094 117.552812 L 37.599719 118.287187 L 40.49425 118.970781 L 43.384875 119.591875 L 46.279406 120.154375 L 49.170031 120.642656 L 52.064563 121.056719 L 54.955188 121.392656 L 57.845813 121.642656 L 60.740344 121.806719 L 63.630969 121.884844 L 66.5255 121.873125 L 69.416125 121.775469 L 72.310656 121.587969 L 75.201281 121.314531 L 78.095812 120.962969 L 80.986437 120.529375 L 83.880969 120.021562 L 86.771594 119.443437 L 89.662219 118.806719 L 92.55675 118.111406 L 95.447375 117.365312 L 98.341906 116.580156 L 101.232531 115.759844 L 104.127062 114.916094 L 107.017687 114.056719 L 109.912219 113.189531 L 112.802844 112.322344 L 115.693469 111.470781 L 118.588 110.634844 L 121.478625 109.830156 L 124.373156 109.064531 L 127.263781 108.337969 L 130.158312 107.67 L 133.048937 107.056719 L 135.943469 106.509844 L 138.834094 106.037187 L 141.728625 105.63875 " transform="matrix(1, 0, 0, -1, 10.162, 132.045)"/>
<path fill="none" stroke-width="0.79701" stroke-linecap="butt" stroke-linejoin="miter" stroke="rgb(100%, 100%, 100%)" stroke-opacity="1" stroke-miterlimit="10" d="M 14.173937 24.95125 L 11.634875 9.709062 " transform="matrix(1, 0, 0, -1, 10.162, 132.045)"/>
<path fill-rule="nonzero" fill="rgb(100%, 100%, 100%)" fill-opacity="1" stroke-width="0.50435" stroke-linecap="butt" stroke-linejoin="miter" stroke="rgb(100%, 100%, 100%)" stroke-opacity="1" stroke-miterlimit="10" d="M 2.192696 0.00141715 L 0.879361 0.443919 L 1.321846 -0.00114314 L 0.880636 -0.442986 Z M 2.192696 0.00141715 " transform="matrix(-0.16438, 0.98634, 0.98634, 0.16438, 21.99185, 121.15343)"/>
<path fill="none" stroke-width="0.79701" stroke-linecap="butt" stroke-linejoin="miter" stroke="rgb(100%, 100%, 100%)" stroke-opacity="1" stroke-miterlimit="10" d="M 14.173937 45.3575 L 11.634875 30.115312 " transform="matrix(1, 0, 0, -1, 10.162, 132.045)"/>
<path fill-rule="nonzero" fill="rgb(100%, 100%, 100%)" fill-opacity="1" stroke-width="0.50435" stroke-linecap="butt" stroke-linejoin="miter" stroke="rgb(100%, 100%, 100%)" stroke-opacity="1" stroke-miterlimit="10" d="M 2.189296 0.000850589 L 0.879814 0.443995 L 1.322299 -0.00106752 L 0.88109 -0.44291 Z M 2.189296 0.000850589 " transform="matrix(-0.16438, 0.98634, 0.98634, 0.16438, 21.99185, 100.74672)"/>
<path fill="none" stroke-width="0.79701" stroke-linecap="butt" stroke-linejoin="miter" stroke="rgb(100%, 100%, 100%)" stroke-opacity="1" stroke-miterlimit="10" d="M 14.173937 70.974687 L 11.634875 55.7325 " transform="matrix(1, 0, 0, -1, 10.162, 132.045)"/>
<path fill-rule="nonzero" fill="rgb(100%, 100%, 100%)" fill-opacity="1" stroke-width="0.50435" stroke-linecap="butt" stroke-linejoin="miter" stroke="rgb(100%, 100%, 100%)" stroke-opacity="1" stroke-miterlimit="10" d="M 2.191327 0.00118904 L 0.881845 0.444334 L 1.32433 -0.000729062 L 0.879268 -0.443214 Z M 2.191327 0.00118904 " transform="matrix(-0.16438, 0.98634, 0.98634, 0.16438, 21.99185, 75.13138)"/>
<path fill="none" stroke-width="0.79701" stroke-linecap="butt" stroke-linejoin="miter" stroke="rgb(100%, 100%, 100%)" stroke-opacity="1" stroke-miterlimit="10" d="M 14.173937 104.310625 L 11.634875 89.068437 " transform="matrix(1, 0, 0, -1, 10.162, 132.045)"/>
<path fill-rule="nonzero" fill="rgb(100%, 100%, 100%)" fill-opacity="1" stroke-width="0.50435" stroke-linecap="butt" stroke-linejoin="miter" stroke="rgb(100%, 100%, 100%)" stroke-opacity="1" stroke-miterlimit="10" d="M 2.191507 0.00121905 L 0.882025 0.444364 L 1.32451 -0.000699059 L 0.879448 -0.443184 Z M 2.191507 0.00121905 " transform="matrix(-0.16438, 0.98634, 0.98634, 0.16438, 21.99185, 41.79526)"/>
<path fill="none" stroke-width="0.79701" stroke-linecap="butt" stroke-linejoin="miter" stroke="rgb(100%, 100%, 100%)" stroke-opacity="1" stroke-miterlimit="10" d="M 42.521594 17.009844 L 39.978625 1.771562 " transform="matrix(1, 0, 0, -1, 10.162, 132.045)"/>
<path fill-rule="nonzero" fill="rgb(100%, 100%, 100%)" fill-opacity="1" stroke-width="0.50435" stroke-linecap="butt" stroke-linejoin="miter" stroke="rgb(100%, 100%, 100%)" stroke-opacity="1" stroke-miterlimit="10" d="M 2.190645 -0.00203705 L 0.880522 0.444961 L 1.323007 -0.000101831 L 0.882439 -0.445798 Z M 2.190645 -0.00203705 " transform="matrix(-0.16438, 0.98634, 0.98634, 0.16438, 50.33867, 129.09352)"/>
<path fill="none" stroke-width="0.79701" stroke-linecap="butt" stroke-linejoin="miter" stroke="rgb(100%, 100%, 100%)" stroke-opacity="1" stroke-miterlimit="10" d="M 42.521594 42.627031 L 39.978625 27.384844 " transform="matrix(1, 0, 0, -1, 10.162, 132.045)"/>
<path fill-rule="nonzero" fill="rgb(100%, 100%, 100%)" fill-opacity="1" stroke-width="0.50435" stroke-linecap="butt" stroke-linejoin="miter" stroke="rgb(100%, 100%, 100%)" stroke-opacity="1" stroke-miterlimit="10" d="M 2.192656 -0.00170188 L 0.878679 0.444654 L 1.325018 0.000233336 L 0.880597 -0.446105 Z M 2.192656 -0.00170188 " transform="matrix(-0.16438, 0.98634, 0.98634, 0.16438, 50.33867, 103.4782)"/>
<path fill="none" stroke-width="0.79701" stroke-linecap="butt" stroke-linejoin="miter" stroke="rgb(100%, 100%, 100%)" stroke-opacity="1" stroke-miterlimit="10" d="M 42.521594 75.962969 L 39.978625 60.720781 " transform="matrix(1, 0, 0, -1, 10.162, 132.045)"/>
<path fill-rule="nonzero" fill="rgb(100%, 100%, 100%)" fill-opacity="1" stroke-width="0.50435" stroke-linecap="butt" stroke-linejoin="miter" stroke="rgb(100%, 100%, 100%)" stroke-opacity="1" stroke-miterlimit="10" d="M 2.192856 -0.00166859 L 0.878879 0.444687 L 1.325217 0.000266627 L 0.880797 -0.446072 Z M 2.192856 -0.00166859 " transform="matrix(-0.16438, 0.98634, 0.98634, 0.16438, 50.33867, 70.14206)"/>
<path fill="none" stroke-width="0.79701" stroke-linecap="butt" stroke-linejoin="miter" stroke="rgb(100%, 100%, 100%)" stroke-opacity="1" stroke-miterlimit="10" d="M 42.521594 112.431719 L 39.978625 97.189531 " transform="matrix(1, 0, 0, -1, 10.162, 132.045)"/>
<path fill-rule="nonzero" fill="rgb(100%, 100%, 100%)" fill-opacity="1" stroke-width="0.50435" stroke-linecap="butt" stroke-linejoin="miter" stroke="rgb(100%, 100%, 100%)" stroke-opacity="1" stroke-miterlimit="10" d="M 2.193113 -0.00162585 L 0.879136 0.44473 L 1.321621 -0.000332811 L 0.881053 -0.446029 Z M 2.193113 -0.00162585 " transform="matrix(-0.16438, 0.98634, 0.98634, 0.16438, 50.33867, 33.67305)"/>
<path fill="none" stroke-width="0.79701" stroke-linecap="butt" stroke-linejoin="miter" stroke="rgb(100%, 100%, 100%)" stroke-opacity="1" stroke-miterlimit="10" d="M 70.865344 14.279375 L 68.326281 -0.962813 " transform="matrix(1, 0, 0, -1, 10.162, 132.045)"/>
<path fill-rule="nonzero" fill="rgb(100%, 100%, 100%)" fill-opacity="1" stroke-width="0.50435" stroke-linecap="butt" stroke-linejoin="miter" stroke="rgb(100%, 100%, 100%)" stroke-opacity="1" stroke-miterlimit="10" d="M 2.19336 -0.000716467 L 0.879383 0.445639 L 1.321868 0.00057657 L 0.881301 -0.44512 Z M 2.19336 -0.000716467 " transform="matrix(-0.16438, 0.98634, 0.98634, 0.16438, 78.68547, 131.825)"/>
<path fill="none" stroke-width="0.79701" stroke-linecap="butt" stroke-linejoin="miter" stroke="rgb(100%, 100%, 100%)" stroke-opacity="1" stroke-miterlimit="10" d="M 70.865344 47.615312 L 68.326281 32.373125 " transform="matrix(1, 0, 0, -1, 10.162, 132.045)"/>
<path fill-rule="nonzero" fill="rgb(100%, 100%, 100%)" fill-opacity="1" stroke-width="0.50435" stroke-linecap="butt" stroke-linejoin="miter" stroke="rgb(100%, 100%, 100%)" stroke-opacity="1" stroke-miterlimit="10" d="M 2.189687 -0.00132865 L 0.879563 0.445669 L 1.322048 0.000606572 L 0.881481 -0.44509 Z M 2.189687 -0.00132865 " transform="matrix(-0.16438, 0.98634, 0.98634, 0.16438, 78.68547, 98.48888)"/>
<path fill="none" stroke-width="0.79701" stroke-linecap="butt" stroke-linejoin="miter" stroke="rgb(100%, 100%, 100%)" stroke-opacity="1" stroke-miterlimit="10" d="M 70.865344 84.084062 L 68.326281 68.845781 " transform="matrix(1, 0, 0, -1, 10.162, 132.045)"/>
<path fill-rule="nonzero" fill="rgb(100%, 100%, 100%)" fill-opacity="1" stroke-width="0.50435" stroke-linecap="butt" stroke-linejoin="miter" stroke="rgb(100%, 100%, 100%)" stroke-opacity="1" stroke-miterlimit="10" d="M 2.189963 -0.00128261 L 0.879839 0.445715 L 1.322324 0.000652604 L 0.881757 -0.445044 Z M 2.189963 -0.00128261 " transform="matrix(-0.16438, 0.98634, 0.98634, 0.16438, 78.68547, 62.01985)"/>
<path fill="none" stroke-width="0.79701" stroke-linecap="butt" stroke-linejoin="miter" stroke="rgb(100%, 100%, 100%)" stroke-opacity="1" stroke-miterlimit="10" d="M 70.865344 116.220781 L 68.326281 100.978594 " transform="matrix(1, 0, 0, -1, 10.162, 132.045)"/>
<path fill-rule="nonzero" fill="rgb(100%, 100%, 100%)" fill-opacity="1" stroke-width="0.50435" stroke-linecap="butt" stroke-linejoin="miter" stroke="rgb(100%, 100%, 100%)" stroke-opacity="1" stroke-miterlimit="10" d="M 2.192082 -0.000929568 L 0.881958 0.446068 L 1.324443 0.00100565 L 0.880022 -0.445333 Z M 2.192082 -0.000929568 " transform="matrix(-0.16438, 0.98634, 0.98634, 0.16438, 78.68547, 29.88489)"/>
<path fill="none" stroke-width="0.79701" stroke-linecap="butt" stroke-linejoin="miter" stroke="rgb(100%, 100%, 100%)" stroke-opacity="1" stroke-miterlimit="10" d="M 99.213 19.267656 L 96.673937 4.029375 " transform="matrix(1, 0, 0, -1, 10.162, 132.045)"/>
<path fill-rule="nonzero" fill="rgb(100%, 100%, 100%)" fill-opacity="1" stroke-width="0.50435" stroke-linecap="butt" stroke-linejoin="miter" stroke="rgb(100%, 100%, 100%)" stroke-opacity="1" stroke-miterlimit="10" d="M 2.190394 -0.00036296 L 0.880913 0.442782 L 1.322755 0.00157226 L 0.882188 -0.444124 Z M 2.190394 -0.00036296 " transform="matrix(-0.16438, 0.98634, 0.98634, 0.16438, 107.03229, 126.83568)"/>
<path fill="none" stroke-width="0.79701" stroke-linecap="butt" stroke-linejoin="miter" stroke="rgb(100%, 100%, 100%)" stroke-opacity="1" stroke-miterlimit="10" d="M 99.213 55.740312 L 96.673937 40.498125 " transform="matrix(1, 0, 0, -1, 10.162, 132.045)"/>
<path fill-rule="nonzero" fill="rgb(100%, 100%, 100%)" fill-opacity="1" stroke-width="0.50435" stroke-linecap="butt" stroke-linejoin="miter" stroke="rgb(100%, 100%, 100%)" stroke-opacity="1" stroke-miterlimit="10" d="M 2.190651 -0.000320216 L 0.881169 0.442824 L 1.323012 0.001615 L 0.878591 -0.444723 Z M 2.190651 -0.000320216 " transform="matrix(-0.16438, 0.98634, 0.98634, 0.16438, 107.03229, 90.36667)"/>
<path fill="none" stroke-width="0.79701" stroke-linecap="butt" stroke-linejoin="miter" stroke="rgb(100%, 100%, 100%)" stroke-opacity="1" stroke-miterlimit="10" d="M 99.213 87.873125 L 96.673937 72.630937 " transform="matrix(1, 0, 0, -1, 10.162, 132.045)"/>
<path fill-rule="nonzero" fill="rgb(100%, 100%, 100%)" fill-opacity="1" stroke-width="0.50435" stroke-linecap="butt" stroke-linejoin="miter" stroke="rgb(100%, 100%, 100%)" stroke-opacity="1" stroke-miterlimit="10" d="M 2.192789 0.0000361176 L 0.879454 0.442538 L 1.32515 0.00197134 L 0.88073 -0.444367 Z M 2.192789 0.0000361176 " transform="matrix(-0.16438, 0.98634, 0.98634, 0.16438, 107.03229, 58.23169)"/>
<path fill="none" stroke-width="0.79701" stroke-linecap="butt" stroke-linejoin="miter" stroke="rgb(100%, 100%, 100%)" stroke-opacity="1" stroke-miterlimit="10" d="M 99.213 112.189531 L 96.673937 96.95125 " transform="matrix(1, 0, 0, -1, 10.162, 132.045)"/>
<path fill-rule="nonzero" fill="rgb(100%, 100%, 100%)" fill-opacity="1" stroke-width="0.50435" stroke-linecap="butt" stroke-linejoin="miter" stroke="rgb(100%, 100%, 100%)" stroke-opacity="1" stroke-miterlimit="10" d="M 2.190231 -0.000390086 L 0.88075 0.442754 L 1.322593 0.00154513 L 0.882026 -0.444151 Z M 2.190231 -0.000390086 " transform="matrix(-0.16438, 0.98634, 0.98634, 0.16438, 107.03229, 33.91397)"/>
<path fill="none" stroke-width="0.79701" stroke-linecap="butt" stroke-linejoin="miter" stroke="rgb(100%, 100%, 100%)" stroke-opacity="1" stroke-miterlimit="10" d="M 127.560656 27.392656 L 125.021594 12.150469 " transform="matrix(1, 0, 0, -1, 10.162, 132.045)"/>
<path fill-rule="nonzero" fill="rgb(100%, 100%, 100%)" fill-opacity="1" stroke-width="0.50435" stroke-linecap="butt" stroke-linejoin="miter" stroke="rgb(100%, 100%, 100%)" stroke-opacity="1" stroke-miterlimit="10" d="M 2.191335 0.000661911 L 0.881853 0.443806 L 1.324338 -0.0012562 L 0.879276 -0.443741 Z M 2.191335 0.000661911 " transform="matrix(-0.16438, 0.98634, 0.98634, 0.16438, 135.37909, 118.71349)"/>
<path fill="none" stroke-width="0.79701" stroke-linecap="butt" stroke-linejoin="miter" stroke="rgb(100%, 100%, 100%)" stroke-opacity="1" stroke-miterlimit="10" d="M 127.560656 59.525469 L 125.021594 44.287187 " transform="matrix(1, 0, 0, -1, 10.162, 132.045)"/>
<path fill-rule="nonzero" fill="rgb(100%, 100%, 100%)" fill-opacity="1" stroke-width="0.50435" stroke-linecap="butt" stroke-linejoin="miter" stroke="rgb(100%, 100%, 100%)" stroke-opacity="1" stroke-miterlimit="10" d="M 2.18962 0.000376063 L 0.880138 0.443521 L 1.322623 -0.00154204 L 0.881414 -0.443385 Z M 2.18962 0.000376063 " transform="matrix(-0.16438, 0.98634, 0.98634, 0.16438, 135.37909, 86.57851)"/>
<path fill="none" stroke-width="0.79701" stroke-linecap="butt" stroke-linejoin="miter" stroke="rgb(100%, 100%, 100%)" stroke-opacity="1" stroke-miterlimit="10" d="M 127.560656 83.845781 L 125.021594 68.603594 " transform="matrix(1, 0, 0, -1, 10.162, 132.045)"/>
<path fill-rule="nonzero" fill="rgb(100%, 100%, 100%)" fill-opacity="1" stroke-width="0.50435" stroke-linecap="butt" stroke-linejoin="miter" stroke="rgb(100%, 100%, 100%)" stroke-opacity="1" stroke-miterlimit="10" d="M 2.190935 0.000595329 L 0.881454 0.44374 L 1.323939 -0.00132278 L 0.878876 -0.443808 Z M 2.190935 0.000595329 " transform="matrix(-0.16438, 0.98634, 0.98634, 0.16438, 135.37909, 62.26077)"/>
<path fill="none" stroke-width="0.79701" stroke-linecap="butt" stroke-linejoin="miter" stroke="rgb(100%, 100%, 100%)" stroke-opacity="1" stroke-miterlimit="10" d="M 127.560656 104.048906 L 125.021594 88.806719 " transform="matrix(1, 0, 0, -1, 10.162, 132.045)"/>
<path fill-rule="nonzero" fill="rgb(100%, 100%, 100%)" fill-opacity="1" stroke-width="0.50435" stroke-linecap="butt" stroke-linejoin="miter" stroke="rgb(100%, 100%, 100%)" stroke-opacity="1" stroke-miterlimit="10" d="M 2.189484 0.000353458 L 0.880002 0.443498 L 1.322487 -0.00156465 L 0.881278 -0.443407 Z M 2.189484 0.000353458 " transform="matrix(-0.16438, 0.98634, 0.98634, 0.16438, 135.37909, 42.05521)"/>
</svg>
